<?xml version="1.0" encoding="utf-8"?>
<!-- Generator: Adobe Illustrator 22.1.0, SVG Export Plug-In . SVG Version: 6.00 Build 0)  -->
<svg version="1.1" id="Calque_1" xmlns="http://www.w3.org/2000/svg" xmlns:xlink="http://www.w3.org/1999/xlink" x="0px" y="0px"
	 viewBox="0 0 841.9 595.3" style="enable-background:new 0 0 841.9 595.3;" xml:space="preserve">
<style type="text/css">
	.st0{fill:#FFFFFF;}
</style>
<g>
	<path class="st0" d="M362.9,201.6c4.6,0,6.9-2.9,9.3-5.9c2.4-3,4.9-6.2,9.8-6.2s7.4,3.1,9.8,6.2c2.4,3,4.7,5.9,9.3,5.9
		c4.6,0,6.9-2.9,9.3-5.9c2.4-3,4.9-6.2,9.8-6.2s7.4,3.1,9.8,6.2c2.4,3,4.7,5.9,9.3,5.9s6.9-2.9,9.3-5.9c2.4-3,4.9-6.2,9.8-6.2
		s7.4,3.1,9.8,6.2c2.4,3,4.7,5.9,9.3,5.9c4.4,0,6.7-2.7,9-5.6c-19-12.2-41.6-19.2-65.8-19.2c-24.5,0-47.3,7.2-66.5,19.6
		C356.5,199.2,358.7,201.6,362.9,201.6z"/>
	<g>
		<path class="st0" d="M487.2,196.4c-2.3,2.9-4.8,5.9-9.6,5.9c-5,0-7.4-3.1-9.8-6.2c-2.4-3-4.7-5.9-9.3-5.9s-6.9,2.9-9.3,5.9
			c-2.4,3-4.9,6.2-9.8,6.2s-7.4-3.1-9.8-6.2c-2.4-3-4.7-5.9-9.3-5.9s-6.9,2.9-9.3,5.9c-2.4,3-4.9,6.2-9.8,6.2c-5,0-7.4-3.1-9.8-6.2
			c-2.4-3-4.7-5.9-9.3-5.9s-6.9,2.9-9.3,5.9c-2.4,3-4.9,6.2-9.8,6.2c-4.6,0-7-2.7-9.3-5.5c-11.4,7.5-21.5,16.9-29.8,27.7
			c0.3,0,0.6,0,0.9,0c4.6,0,6.9-2.9,9.3-5.9c2.4-3,4.9-6.2,9.8-6.2c5,0,7.4,3.1,9.8,6.2c2.4,3,4.7,5.9,9.3,5.9s6.9-2.9,9.3-5.9
			c2.4-3,4.9-6.2,9.8-6.2s7.4,3.1,9.8,6.2c2.4,3,4.7,5.9,9.3,5.9c4.6,0,6.9-2.9,9.3-5.9c2.4-3,4.9-6.2,9.8-6.2s7.4,3.1,9.8,6.2
			c2.4,3,4.7,5.9,9.3,5.9c4.1,0,6.3-2.2,8.4-4.8l-9.5-9.3l14.1-2l6.3-12.8l6.3,12.8l14.1,2l-9.7,9.5c2.1,2.5,4.3,4.6,8.2,4.6
			c4.6,0,6.9-2.9,9.3-5.9c2.4-3,4.9-6.2,9.8-6.2c5,0,7.4,3.1,9.8,6.2c2.4,3,4.7,5.9,9.3,5.9c0.7,0,1.3-0.1,1.8-0.2
			C509.1,213.4,498.9,204,487.2,196.4z"/>
		<g>
			<path class="st0" d="M518.2,225c-0.7,0.2-1.5,0.3-2.3,0.3c-5,0-7.4-3.1-9.8-6.2c-2.4-3-4.7-5.9-9.3-5.9c-4.6,0-6.9,2.9-9.3,5.9
				c-2.4,3-4.9,6.2-9.8,6.2c-4.2,0-6.6-2.2-8.7-4.8l2.4,13.9l-12.6-6.6l-12.6,6.6l2.4-14l-0.1-0.1c-2.2,2.6-4.6,5-8.9,5
				c-5,0-7.4-3.1-9.8-6.2c-2.4-3-4.7-5.9-9.3-5.9s-6.9,2.9-9.3,5.9c-2.4,3-4.9,6.2-9.8,6.2c-5,0-7.4-3.1-9.8-6.2
				c-2.4-3-4.7-5.9-9.3-5.9s-6.9,2.9-9.3,5.9c-2.4,3-4.9,6.2-9.8,6.2s-7.4-3.1-9.8-6.2c-2.4-3-4.7-5.9-9.3-5.9
				c-4.6,0-6.9,2.9-9.3,5.9c-2.4,3-4.9,6.2-9.8,6.2c-0.5,0-1,0-1.4-0.1c-3.5,4.6-6.6,9.4-9.5,14.5c0.6,0.6,1.1,1.3,1.6,2
				c2.4,3,4.7,5.9,9.3,5.9s6.9-2.9,9.3-5.9c2.4-3,4.9-6.2,9.8-6.2c5,0,7.4,3.1,9.8,6.2c2.4,3,4.7,5.9,9.3,5.9s6.9-2.9,9.3-5.9
				c2.4-3,4.9-6.2,9.8-6.2s7.4,3.1,9.8,6.2c2.4,3,4.7,5.9,9.3,5.9c4.6,0,6.9-2.9,9.3-5.9c2.4-3,4.9-6.2,9.8-6.2s7.4,3.1,9.8,6.2
				c2.4,3,4.7,5.9,9.3,5.9s6.9-2.9,9.3-5.9c2.4-3,4.9-6.2,9.8-6.2s7.4,3.1,9.8,6.2c2.4,3,4.7,5.9,9.3,5.9c4.6,0,6.9-2.9,9.3-5.9
				c2.4-3,4.9-6.2,9.8-6.2c5,0,7.4,3.1,9.8,6.2c2.4,3,4.7,5.9,9.3,5.9c4.6,0,6.9-2.9,9.3-5.9c0.7-0.9,1.5-1.8,2.3-2.7
				C524.6,234.1,521.5,229.4,518.2,225z"/>
			<g>
				<path class="st0" d="M527.5,239.5c-0.7,0.8-1.4,1.6-2.1,2.5c-2.4,3-4.9,6.2-9.8,6.2c-5,0-7.4-3.1-9.8-6.2
					c-2.4-3-4.7-5.9-9.3-5.9c-4.6,0-6.9,2.9-9.3,5.9c-2.4,3-4.9,6.2-9.8,6.2c-5,0-7.4-3.1-9.8-6.2c-2.4-3-4.7-5.9-9.3-5.9
					s-6.9,2.9-9.3,5.9c-2.4,3-4.9,6.2-9.8,6.2s-7.4-3.1-9.8-6.2c-2.4-3-4.7-5.9-9.3-5.9s-6.9,2.9-9.3,5.9c-2.4,3-4.9,6.2-9.8,6.2
					c-5,0-7.4-3.1-9.8-6.2c-2.4-3-4.7-5.9-9.3-5.9s-6.9,2.9-9.3,5.9c-2.4,3-4.9,6.2-9.8,6.2s-7.4-3.1-9.8-6.2
					c-2.4-3-4.7-5.9-9.3-5.9c-4.6,0-6.9,2.9-9.3,5.9c-2.4,3-4.9,6.2-9.8,6.2s-7.4-3.1-9.8-6.2c-0.5-0.6-1-1.2-1.4-1.8
					c-3.2,5.8-5.9,11.9-8.1,18.2c0.1,0,0.2,0,0.3,0c5,0,7.4,3.1,9.8,6.2c2.4,3,4.7,5.9,9.3,5.9c3.6,0,5.7-1.7,7.6-3.9l-9.4-9.2
					l14.1-2l6.3-12.8l6.3,12.8l14.1,2l-8.8,8.6c2,2.4,4.2,4.5,8.1,4.5c4.6,0,6.9-2.9,9.3-5.9c2.4-3,4.9-6.2,9.8-6.2s7.4,3.1,9.8,6.2
					c2.4,3,4.7,5.9,9.3,5.9c4,0,6.2-2.1,8.3-4.7l-9.5-9.3l14.1-2l6.3-12.8l6.3,12.8l14.1,2l-9.6,9.3c2.1,2.5,4.3,4.6,8.3,4.6
					c4.6,0,6.9-2.9,9.3-5.9c2.4-3,4.9-6.2,9.8-6.2s7.4,3.1,9.8,6.2c2.4,3,4.7,5.9,9.3,5.9c3.9,0,6.1-2.1,8.2-4.5l-9.7-9.4l14.1-2
					l6.3-12.8l6.3,12.8l14.1,2l-9.4,9.2c2.1,2.6,4.3,4.8,8.4,4.8c4.6,0,6.9-2.9,9.3-5.9c2.4-3,4.9-6.2,9.8-6.2c0.5,0,0.9,0,1.3,0.1
					C533.7,251.8,530.9,245.5,527.5,239.5z"/>
				<g>
					<path class="st0" d="M536.3,259.1c-0.5-0.1-1-0.1-1.6-0.1c-4.6,0-6.9,2.9-9.3,5.9c-2.4,3-4.9,6.2-9.8,6.2c-4.3,0-6.8-2.4-8.9-5
						l-0.2,0.2l2.4,14l-12.6-6.6l-12.6,6.6l2.4-14c-2.1,2.5-4.5,4.7-8.7,4.7c-5,0-7.4-3.1-9.8-6.2c-2.4-3-4.7-5.9-9.3-5.9
						s-6.9,2.9-9.3,5.9c-2.4,3-4.9,6.2-9.8,6.2c-4.3,0-6.7-2.3-8.8-4.9l-0.1,0.1l2.4,14l-12.6-6.6l-12.6,6.6l2.4-14l-0.1-0.1
						c-2.1,2.6-4.6,4.9-8.8,4.9c-5,0-7.4-3.1-9.8-6.2c-2.4-3-4.7-5.9-9.3-5.9s-6.9,2.9-9.3,5.9c-2.4,3-4.9,6.2-9.8,6.2
						c-4.2,0-6.6-2.2-8.7-4.7l-0.8,0.8l2.4,14l-12.6-6.6l-12.6,6.6l2.4-14l-0.2-0.2c-2,2.2-4.3,4.1-8.2,4.1c-5,0-7.4-3.1-9.8-6.2
						c-2.4-3-4.7-5.9-9.3-5.9c-0.2,0-0.4,0-0.5,0c-2.7,7.8-4.6,16-5.7,24.4c1.6-1.3,3.5-2.2,6.2-2.2c5,0,7.4,3.1,9.8,6.2
						c2.4,3,4.7,5.9,9.3,5.9s6.9-2.9,9.3-5.9c2.4-3,4.9-6.2,9.8-6.2c5,0,7.4,3.1,9.8,6.2c2.4,3,4.7,5.9,9.3,5.9s6.9-2.9,9.3-5.9
						c2.4-3,4.9-6.2,9.8-6.2s7.4,3.1,9.8,6.2c2.4,3,4.7,5.9,9.3,5.9c4.6,0,6.9-2.9,9.3-5.9c2.4-3,4.9-6.2,9.8-6.2s7.4,3.1,9.8,6.2
						c2.4,3,4.7,5.9,9.3,5.9s6.9-2.9,9.3-5.9c2.4-3,4.9-6.2,9.8-6.2s7.4,3.1,9.8,6.2c2.4,3,4.7,5.9,9.3,5.9c4.6,0,6.9-2.9,9.3-5.9
						c2.4-3,4.9-6.2,9.8-6.2c5,0,7.4,3.1,9.8,6.2c2.4,3,4.7,5.9,9.3,5.9c4.6,0,6.9-2.9,9.3-5.9c2.4-3,4.9-6.2,9.8-6.2
						c3.3,0,5.5,1.4,7.3,3.2C541,275.7,539,267.2,536.3,259.1z"/>
					<g>
						<path class="st0" d="M542.2,285.6c-1.9-2.1-4-3.7-7.5-3.7c-4.6,0-6.9,2.9-9.3,5.9c-2.4,3-4.9,6.2-9.8,6.2s-7.4-3.1-9.8-6.2
							c-2.4-3-4.7-5.9-9.3-5.9c-4.6,0-6.9,2.9-9.3,5.9c-2.4,3-4.9,6.2-9.8,6.2c-5,0-7.4-3.1-9.8-6.2c-2.4-3-4.7-5.9-9.3-5.9
							s-6.9,2.9-9.3,5.9c-2.4,3-4.9,6.2-9.8,6.2s-7.4-3.1-9.8-6.2c-2.4-3-4.7-5.9-9.3-5.9s-6.9,2.9-9.3,5.9c-2.4,3-4.9,6.2-9.8,6.2
							c-5,0-7.4-3.1-9.8-6.2c-2.4-3-4.7-5.9-9.3-5.9s-6.9,2.9-9.3,5.9c-2.4,3-4.9,6.2-9.8,6.2s-7.4-3.1-9.8-6.2
							c-2.4-3-4.7-5.9-9.3-5.9c-4.6,0-6.9,2.9-9.3,5.9c-2.4,3-4.9,6.2-9.8,6.2s-7.4-3.1-9.8-6.2c-2.4-3-4.7-5.9-9.3-5.9
							c-2.8,0-4.7,1-6.3,2.5c-0.5,4.7-0.8,9.4-0.8,14.2c0,2.8,0.1,5.5,0.3,8.3c1.7-1.6,3.8-2.8,6.9-2.8c5,0,7.4,3.1,9.8,6.2
							c2.4,3,4.7,5.9,9.3,5.9s6.9-2.9,9.3-5.9c2.4-3,4.9-6.2,9.8-6.2c5,0,7.4,3.1,9.8,6.2c2.4,3,4.7,5.9,9.3,5.9c3.8,0,6-1.9,8-4.3
							l-9.4-9.2l14.1-2l6.3-12.8l6.3,12.8l14.1,2l-9.2,9c2,2.4,4.2,4.5,8.1,4.5c4.6,0,6.9-2.9,9.3-5.9c2.4-3,4.9-6.2,9.8-6.2
							s7.4,3.1,9.8,6.2c2.4,3,4.7,5.9,9.3,5.9c3.9,0,6.1-2,8.1-4.5l-9.2-9l14.1-2l6.3-12.8l6.3,12.8l14.1,2l-9.4,9.2
							c2,2.4,4.2,4.3,8,4.3c4.6,0,6.9-2.9,9.3-5.9c2.4-3,4.9-6.2,9.8-6.2c5,0,7.4,3.1,9.8,6.2c2.4,3,4.7,5.9,9.3,5.9
							c4.6,0,6.9-2.9,9.3-5.9c2.4-3,4.9-6.2,9.8-6.2c3.6,0,5.9,1.7,7.8,3.7c0.2-3,0.3-6.1,0.3-9.2
							C542.9,294.3,542.7,289.9,542.2,285.6z"/>
						<g>
							<path class="st0" d="M534.7,304.7c-4.6,0-6.9,2.9-9.3,5.9c-2.4,3-4.9,6.2-9.8,6.2c-5,0-7.4-3.1-9.8-6.2
								c-2.4-3-4.7-5.9-9.3-5.9c-4.6,0-6.9,2.9-9.3,5.9c-2.4,3-4.9,6.2-9.8,6.2c-4.1,0-6.5-2.1-8.5-4.5l-0.2,0.2l2.4,14l-12.6-6.6
								l-12.6,6.6l2.4-14l-0.4-0.4c-2.1,2.5-4.5,4.7-8.7,4.7c-5,0-7.4-3.1-9.8-6.2c-2.4-3-4.7-5.9-9.3-5.9s-6.9,2.9-9.3,5.9
								c-2.4,3-4.9,6.2-9.8,6.2c-4.2,0-6.6-2.2-8.7-4.7l-0.4,0.4l2.4,14l-12.6-6.6l-12.6,6.6l2.4-14l-0.2-0.2
								c-2.1,2.4-4.5,4.5-8.5,4.5c-5,0-7.4-3.1-9.8-6.2c-2.4-3-4.7-5.9-9.3-5.9c-4.6,0-6.9,2.9-9.3,5.9c-2.4,3-4.9,6.2-9.8,6.2
								s-7.4-3.1-9.8-6.2c-2.4-3-4.7-5.9-9.3-5.9c-3.1,0-5.1,1.3-6.8,3c0.5,6.8,1.6,13.5,3.2,19.9c1.1-0.4,2.2-0.7,3.6-0.7
								c5,0,7.4,3.1,9.8,6.2c2.4,3,4.7,5.9,9.3,5.9s6.9-2.9,9.3-5.9c2.4-3,4.9-6.2,9.8-6.2c5,0,7.4,3.1,9.8,6.2
								c2.4,3,4.7,5.9,9.3,5.9s6.9-2.9,9.3-5.9c2.4-3,4.9-6.2,9.8-6.2s7.4,3.1,9.8,6.2c2.4,3,4.7,5.9,9.3,5.9c4.6,0,6.9-2.9,9.3-5.9
								c2.4-3,4.9-6.2,9.8-6.2s7.4,3.1,9.8,6.2c2.4,3,4.7,5.9,9.3,5.9s6.9-2.9,9.3-5.9c2.4-3,4.9-6.2,9.8-6.2s7.4,3.1,9.8,6.2
								c2.4,3,4.7,5.9,9.3,5.9c4.6,0,6.9-2.9,9.3-5.9c2.4-3,4.9-6.2,9.8-6.2c5,0,7.4,3.1,9.8,6.2c2.4,3,4.7,5.9,9.3,5.9
								c4.6,0,6.9-2.9,9.3-5.9c2.4-3,4.9-6.2,9.8-6.2c1.8,0,3.3,0.4,4.5,1.1c1.6-6.3,2.6-12.7,3.2-19.3
								C540.5,306.4,538.3,304.7,534.7,304.7z"/>
							<g>
								<path class="st0" d="M534.7,327.4c-4.6,0-6.9,2.9-9.3,5.9c-2.4,3-4.9,6.2-9.8,6.2c-5,0-7.4-3.1-9.8-6.2
									c-2.4-3-4.7-5.9-9.3-5.9c-4.6,0-6.9,2.9-9.3,5.9c-2.4,3-4.9,6.2-9.8,6.2c-5,0-7.4-3.1-9.8-6.2c-2.4-3-4.7-5.9-9.3-5.9
									s-6.9,2.9-9.3,5.9c-2.4,3-4.9,6.2-9.8,6.2s-7.4-3.1-9.8-6.2c-2.4-3-4.7-5.9-9.3-5.9s-6.9,2.9-9.3,5.9
									c-2.4,3-4.9,6.2-9.8,6.2c-5,0-7.4-3.1-9.8-6.2c-2.4-3-4.7-5.9-9.3-5.9s-6.9,2.9-9.3,5.9c-2.4,3-4.9,6.2-9.8,6.2
									s-7.4-3.1-9.8-6.2c-2.4-3-4.7-5.9-9.3-5.9c-4.6,0-6.9,2.9-9.3,5.9c-2.4,3-4.9,6.2-9.8,6.2s-7.4-3.1-9.8-6.2
									c-2.4-3-4.7-5.9-9.3-5.9c-1.3,0-2.4,0.2-3.4,0.7c2,7.9,4.8,15.6,8.2,22.8c2.1,1.2,3.6,3.1,5,4.9c2.4,3,4.7,5.9,9.3,5.9
									c3.8,0,6-2,8-4.4l-9.9-9.6l14.1-2l6.3-12.8l6.3,12.8l14.1,2l-9.2,9c2.2,2.7,4.4,5,8.5,5c4.6,0,6.9-2.9,9.3-5.9
									c2.4-3,4.9-6.2,9.8-6.2s7.4,3.1,9.8,6.2c2.4,3,4.7,5.9,9.3,5.9c4,0,6.2-2.1,8.3-4.7l-9.5-9.3l14.1-2l6.3-12.8l6.3,12.8
									l14.1,2L431,357c2.1,2.5,4.3,4.6,8.3,4.6c4.6,0,6.9-2.9,9.3-5.9c2.4-3,4.9-6.2,9.8-6.2s7.4,3.1,9.8,6.2
									c2.4,3,4.7,5.9,9.3,5.9c4.6,0,6.9-2.9,9.3-5.9c2.4-3,4.9-6.2,9.8-6.2c5,0,7.4,3.1,9.8,6.2c2.4,3,4.7,5.9,9.3,5.9
									c4.6,0,6.9-2.9,9.3-5.9c1.8-2.2,3.6-4.5,6.3-5.5c3.3-6.9,5.9-14.2,7.9-21.8C537.9,327.8,536.5,327.4,534.7,327.4z"/>
								<g>
									<path class="st0" d="M525.5,356.2c-2.4,3-4.9,6.2-9.8,6.2c-5,0-7.4-3.1-9.8-6.2c-2.4-3-4.7-5.9-9.3-5.9
										c-4.6,0-6.9,2.9-9.3,5.9c-2.4,3-4.9,6.2-9.8,6.2c-5,0-7.4-3.1-9.8-6.2c-2.4-3-4.7-5.9-9.3-5.9s-6.9,2.9-9.3,5.9
										c-2.4,3-4.9,6.2-9.8,6.2c-4.3,0-6.7-2.3-8.8-4.9l-0.1,0.1l2.4,14l-12.6-6.6l-12.6,6.6l2.4-14l-0.1-0.1
										c-2.1,2.6-4.6,4.9-8.8,4.9c-5,0-7.4-3.1-9.8-6.2c-2.4-3-4.7-5.9-9.3-5.9s-6.9,2.9-9.3,5.9c-2.4,3-4.9,6.2-9.8,6.2
										c-4.4,0-6.9-2.5-9.1-5.2l-0.4,0.4l2.4,14l-12.6-6.6l-12.6,6.6l2.3-13.5c-2,2.3-4.4,4.2-8.3,4.2c-5,0-7.4-3.1-9.8-6.2
										c-1.2-1.5-2.4-3-3.8-4.1c5.2,10.5,11.9,20.2,19.7,28.7c0.8-0.9,1.6-1.8,2.4-2.8c2.4-3,4.9-6.2,9.8-6.2c5,0,7.4,3.1,9.8,6.2
										c2.4,3,4.7,5.9,9.3,5.9s6.9-2.9,9.3-5.9c2.4-3,4.9-6.2,9.8-6.2c5,0,7.4,3.1,9.8,6.2c2.4,3,4.7,5.9,9.3,5.9
										c4.6,0,6.9-2.9,9.3-5.9c2.4-3,4.9-6.2,9.8-6.2c5,0,7.4,3.1,9.8,6.2c2.4,3,4.7,5.9,9.3,5.9c4.6,0,6.9-2.9,9.3-5.9
										c2.4-3,4.9-6.2,9.8-6.2c5,0,7.4,3.1,9.8,6.2c2.4,3,4.7,5.9,9.3,5.9c4.6,0,6.9-2.9,9.3-5.9c2.4-3,4.9-6.2,9.8-6.2
										c5,0,7.4,3.1,9.8,6.2c1.2,1.5,2.4,3,3.8,4.1c8.6-9.1,15.8-19.5,21.3-30.9C528.6,352.3,527.1,354.2,525.5,356.2z"/>
									<g>
										<path class="st0" d="M508.9,382.6c-1.5-1.2-2.7-2.7-3.9-4.1c-2.4-3-4.7-5.9-9.3-5.9c-4.6,0-6.9,2.9-9.3,5.9
											c-2.4,3-4.9,6.2-9.8,6.2c-5,0-7.4-3.1-9.8-6.2c-2.4-3-4.7-5.9-9.3-5.9c-4.6,0-6.9,2.9-9.3,5.9c-2.4,3-4.9,6.2-9.8,6.2
											s-7.4-3.1-9.8-6.2c-2.4-3-4.7-5.9-9.3-5.9s-6.9,2.9-9.3,5.9c-2.4,3-4.9,6.2-9.8,6.2c-5,0-7.4-3.1-9.8-6.2
											c-2.4-3-4.7-5.9-9.3-5.9c-4.6,0-6.9,2.9-9.3,5.9c-2.4,3-4.9,6.2-9.8,6.2c-5,0-7.4-3.1-9.8-6.2c-2.4-3-4.7-5.9-9.3-5.9
											c-4.6,0-6.9,2.9-9.3,5.9c-0.8,1-1.6,2-2.5,2.9c5,5.3,10.4,10.2,16.2,14.6c0.9,0.5,1.7,1.1,2.5,1.8
											c4.6,3.3,9.4,6.2,14.5,8.8c3.1-0.8,4.9-3.1,6.9-5.6c2.4-3,4.9-6.2,9.8-6.2c5,0,7.4,3.1,9.8,6.2c2.4,3,4.7,5.9,9.3,5.9
											c4.6,0,6.9-2.8,9.3-5.9c2.4-3,4.9-6.2,9.8-6.2c5,0,7.4,3.1,9.8,6.2c2.4,3,4.7,5.9,9.3,5.9c4.6,0,6.9-2.9,9.3-5.9
											c2.4-3,4.9-6.2,9.8-6.2c5,0,7.4,3.1,9.8,6.2c2.3,2.9,4.6,5.7,8.9,5.9c3.1-1.6,6.1-3.3,9-5.1
											C485.5,401.4,496.5,394.9,508.9,382.6z"/>
										<path class="st0" d="M466.8,401.4c-2.4-3-4.7-5.9-9.3-5.9c-4.6,0-6.9,2.8-9.3,5.9c-2.4,3-4.9,6.2-9.8,6.2
											s-7.4-3.1-9.8-6.2c-2.4-3-4.7-5.9-9.3-5.9s-6.9,2.8-9.3,5.9c-2.4,3-4.9,6.2-9.8,6.2c-5,0-7.4-3.1-9.8-6.2
											c-2.4-3-4.7-5.9-9.3-5.9c-4.6,0-6.9,2.8-9.3,5.9c-1.8,2.3-3.6,4.6-6.5,5.6c16.6,8.4,35.4,13.2,55.2,13.2
											c19.5,0,38-4.6,54.4-12.7C471.1,406.8,468.9,404.1,466.8,401.4z"/>
									</g>
								</g>
							</g>
						</g>
					</g>
				</g>
			</g>
		</g>
	</g>
</g>
</svg>
